# xmcd CD database file
#
# Track frame offsets:
#	150
#	16619
#	43822
#	56921
#	85405
#	108595
#	128115
#	153209
#	172798
#	193152
#	209952
#	232130
#	250198
#	281030
#
# Disc length: 3988 seconds
#
# Revision: 0
# Processed by: cddbd v1.5PL3 Copyright (c) Steve Scherf et al.
# Submitted via: CDex 1.51
#
DISCID=cb0f920e
DTITLE=Maria Harp - 14 Pieces For Harp And Bass
DYEAR=1900
DGENRE=Jazz
TTITLE0=Struttin'
TTITLE1=Child Again
TTITLE2=Put On Your Wings
TTITLE3=I'll Talk With You
TTITLE4=Alone
TTITLE5=The Answer
TTITLE6=The Escape
TTITLE7=The Excursionist
TTITLE8=Don't Waste Your Time
TTITLE9=Once In A While
TTITLE10=Southern Memories
TTITLE11=Stay With Me
TTITLE12=You And I Know
TTITLE13=Doin' Fine
EXTD=
EXTT0=
EXTT1=
EXTT2=
EXTT3=
EXTT4=
EXTT5=
EXTT6=
EXTT7=
EXTT8=
EXTT9=
EXTT10=
EXTT11=
EXTT12=
EXTT13=
PLAYORDER=
